HIERARCHY
ROOT Torso
{
	OFFSET 0.000000 0.000000 0.000000
	CHANNELS 6 Xposition Yposition Zposition Zrotation Yrotation Xrotation 
	JOINT LHip
	{
		OFFSET 0.000000 0.000000 0.000000
		CHANNELS 3 Zrotation Yrotation Xrotation
		JOINT LThigh
		{
			OFFSET 0.055000 -0.055000 -0.010000
			CHANNELS 3 Zrotation Yrotation Xrotation
			JOINT LLeg
			{
				OFFSET 0.000000 -0.160000 0.015000
				CHANNELS 3 Zrotation Yrotation Xrotation
				JOINT LFoot
				{
					OFFSET 0.000000 -0.160000 -0.010000
					CHANNELS 3 Zrotation Yrotation Xrotation
					JOINT LToes
					{
						OFFSET 0.000000 0.000000 0.090000
						CHANNELS 3 Zrotation Yrotation Xrotation
						End Site
						{
							OFFSET 0.000000 0.000000 0.000000
						}
					}
				}
			}
		}
	}
	JOINT RHip
	{
		OFFSET 0.000000 0.000000 0.000000
		CHANNELS 3 Zrotation Yrotation Xrotation
		JOINT RThigh
		{
			OFFSET -0.055000 -0.055000 -0.010000
			CHANNELS 3 Zrotation Yrotation Xrotation
			JOINT RLeg
			{
				OFFSET 0.000000 -0.160000 0.015000
				CHANNELS 3 Zrotation Yrotation Xrotation
				JOINT RFoot
				{
					OFFSET 0.000000 -0.160000 -0.010000
					CHANNELS 3 Zrotation Yrotation Xrotation
					JOINT RToes
					{
						OFFSET 0.000000 0.000000 0.090000
						CHANNELS 3 Zrotation Yrotation Xrotation
						End Site
						{
							OFFSET 0.000000 0.000000 0.000000
						}
					}
				}
			}
		}
	}
	JOINT Neck
	{
		OFFSET 0.000000 0.135000 0.000000
		CHANNELS 3 Zrotation Yrotation Xrotation
		JOINT Head
		{
			OFFSET 0.000000 0.075000 0.000000
			CHANNELS 3 Zrotation Yrotation Xrotation
			End Site
			{
				OFFSET 0.000000 0.000000 0.000000
			}
		}
	}
	JOINT LUpperarm
	{
		OFFSET 0.098000 0.150000 0.000000
		CHANNELS 3 Zrotation Yrotation Xrotation
		JOINT LLowerarm
		{
			OFFSET 0.000000 0.009000 0.090000
			CHANNELS 3 Zrotation Yrotation Xrotation
			JOINT LHand
			{
				OFFSET 0.000000 0.000000 0.105000
				CHANNELS 3 Zrotation Yrotation Xrotation
				End Site
				{
					OFFSET 0.000000 0.000000 0.000000
				}
			}
		}
	}
	JOINT RUpperarm
	{
		OFFSET -0.098000 0.150000 0.000000
		CHANNELS 3 Zrotation Yrotation Xrotation
		JOINT RLowerarm
		{
			OFFSET 0.000000 0.009000 0.090000
			CHANNELS 3 Zrotation Yrotation Xrotation
			JOINT RHand
			{
				OFFSET 0.000000 0.000000 0.105000
				CHANNELS 3 Zrotation Yrotation Xrotation
				End Site
				{
					OFFSET 0.000000 0.000000 0.000000
				}
			}
		}
	}
}
MOTION
Frames: 11
Frame Time: 0.040000
-0.003760 0.419157 0.429519 -175.445975 6.350146 -179.505446 4.591627 -3.529081 -3.675759 -6.240369 1.320788 -2.498099 7.688618 6.061755 26.441047 3.980527 -8.509659 11.556906 0.550200 -4.751798 -13.201993 -1.440899 6.057372 -8.185448 14.629265 4.627268 -5.910771 -10.612081 -7.739615 34.244259 -0.807907 2.435798 11.005850 -0.134000 2.359399 -6.500097 2.137836 -0.646653 0.065147 -2.736399 3.492898 -5.511997 17.224523 45.965526 97.452478 7.204805 -22.863067 -3.997438 1.147763 1.894457 -9.917058 -14.678713 -50.666519 108.334258 -6.062687 17.706834 -4.102674 -2.347924 -2.202593 5.608399 
-0.003194 0.418630 0.429062 -175.489879 6.162780 -179.621617 4.641998 -3.621726 -3.612411 -6.177737 1.400604 -2.866960 7.810541 6.251949 27.330320 4.107210 -8.988015 11.360730 0.519900 -4.620998 -12.830694 -1.349673 5.953374 -8.229657 14.881603 4.472531 -4.732737 -10.517131 -7.517531 33.080767 -0.822970 2.331665 9.909999 -0.119300 2.226499 -6.132097 2.055354 -0.583875 0.094470 -2.667499 3.435998 -5.515197 17.488154 46.257803 97.760893 7.436508 -23.054931 -4.093334 1.107938 1.900719 -9.943513 -14.956320 -49.929831 108.545884 -6.637293 18.220106 -4.317576 -2.311814 -2.305374 4.568655 
-0.002643 0.418148 0.428617 -175.555473 5.964098 -179.734906 4.656167 -3.722652 -3.552278 -6.101386 1.500199 -3.235988 7.931417 6.434899 28.210895 4.225115 -9.450026 11.206504 0.495000 -4.510798 -12.518294 -1.296215 5.832401 -8.278345 15.128767 4.366537 -3.642142 -10.442608 -7.339299 32.057110 -0.838352 2.196494 8.672847 -0.139100 2.403699 -6.622597 1.969986 -0.518957 0.135855 -2.608599 3.371798 -5.514297 17.705849 46.606277 98.059886 7.657752 -23.224428 -4.178200 1.067276 1.907521 -9.894418 -15.211814 -49.086823 108.676444 -7.280398 18.765593 -4.551274 -2.264498 -2.415022 3.408454 
-0.002102 0.417641 0.428235 -175.626083 5.775708 -179.822738 4.684048 -3.830088 -3.528855 -6.042553 1.551825 -3.611326 8.044299 6.616124 29.099915 4.317850 -9.843131 11.110021 0.469400 -4.394298 -12.188594 -1.238535 5.709976 -8.345571 15.342379 4.304475 -2.678925 -10.382450 -7.203781 31.171793 -0.856632 2.046594 7.393836 -0.194600 2.840799 -7.835896 1.859437 -0.453687 0.166400 -2.541199 3.306298 -5.502397 17.972408 47.016839 98.410831 7.932590 -23.445522 -4.294447 1.025006 1.917613 -9.856194 -15.427747 -48.233829 108.735172 -7.950145 19.329910 -4.799458 -2.205588 -2.535985 2.255146 
-0.001585 0.417044 0.427902 -175.698034 5.582804 -179.907589 4.707045 -3.936806 -3.511896 -5.982866 1.557961 -4.025523 8.165879 6.812335 30.049658 4.402596 -10.208674 10.984646 0.447100 -4.289898 -11.893694 -1.183085 5.577415 -8.402412 15.527193 4.289596 -1.860495 -10.321062 -7.100545 30.398845 -0.856623 1.830269 6.200234 -0.275200 3.374298 -9.322695 1.743583 -0.386359 0.215895 -2.464199 3.248498 -5.480097 18.239182 47.362321 98.748947 8.252721 -23.679697 -4.415696 0.981809 1.929590 -9.889405 -15.608020 -47.420848 108.748929 -8.599066 19.858393 -5.034939 -2.148003 -2.649232 1.231372 
-0.001083 0.416428 0.427610 -175.788099 5.379192 -179.974160 4.709052 -4.052601 -3.521005 -5.906104 1.546686 -4.488880 8.297748 7.020127 31.048121 4.480901 -10.547676 10.824604 0.444800 -4.278998 -11.863094 -1.161537 5.439369 -8.472983 15.701851 4.314704 -1.161498 -10.254769 -7.028701 29.746292 -0.826090 1.525278 5.116408 -0.369300 3.903198 -10.804595 1.626858 -0.311752 0.254203 -2.359999 3.186298 -5.461197 18.531405 47.726010 99.111002 8.597563 -23.947152 -4.558515 0.938746 1.949209 -9.999131 -15.756151 -46.494583 108.680201 -9.323756 20.435304 -5.309870 -2.072963 -2.780480 -0.024691 
-0.000619 0.415772 0.427393 -175.896602 5.170238 179.974624 4.692498 -4.179084 -3.546526 -5.820281 1.514552 -5.028801 8.434967 7.243952 32.132667 4.551514 -10.879423 10.733378 0.456300 -4.333398 -12.016394 -1.183148 5.305845 -8.562538 15.876165 4.426693 -0.553905 -10.164842 -6.974615 29.204197 -0.739452 1.093372 4.309489 -0.417700 4.148398 -11.494394 1.495384 -0.241815 0.319133 -2.286399 3.120798 -5.432497 18.773377 48.130540 99.437990 8.938393 -24.180960 -4.687064 0.905653 1.961584 -10.049377 -15.845945 -45.715166 108.532645 -9.956343 20.921947 -5.534351 -1.998725 -2.893373 -1.034120 
-0.000171 0.415354 0.427189 -175.985613 4.917859 179.960451 4.709543 -4.327461 -3.621924 -5.746775 1.430569 -5.616582 8.578439 7.475384 33.298379 4.596082 -11.137641 10.684134 0.502800 -4.545898 -12.617794 -1.205725 5.177288 -8.674672 16.023614 4.584874 -0.049002 -10.056832 -6.945905 28.772573 -0.611491 0.585962 3.757124 -0.430400 4.210298 -11.669094 1.330599 -0.155484 0.346299 -2.203699 3.047198 -5.415197 19.088744 48.264661 99.752670 9.373555 -24.495816 -4.874093 0.866322 1.983907 -10.343122 -15.919705 -45.275942 108.406812 -10.417178 21.333451 -5.712445 -1.951783 -2.978396 -1.682995 
0.000231 0.415014 0.427057 -176.098361 4.629929 179.964948 4.715543 -4.497178 -3.717918 -5.677825 1.309495 -6.317210 8.716037 7.717070 34.577645 4.600914 -11.301479 10.854619 0.561800 -4.800698 -13.340893 -1.266602 5.046670 -8.786836 16.149032 4.769892 0.352499 -9.947459 -6.935108 28.430150 -0.475502 0.096949 3.383229 -0.422200 4.170598 -11.557094 1.157536 -0.062065 0.387139 -2.101999 2.965099 -5.383397 19.323272 48.539213 100.044369 9.763941 -24.752538 -5.033071 0.837088 1.996920 -10.479166 -15.957851 -44.791792 108.192136 -10.878104 21.724791 -5.884521 -1.901296 -3.064261 -2.409851 
0.000612 0.414753 0.426986 -176.216931 4.329547 -179.993694 4.728552 -4.682211 -3.854783 -5.593694 1.118896 -7.138910 8.829510 7.976351 35.988808 4.546448 -11.322915 11.351287 0.583000 -4.889198 -13.592893 -1.355130 4.929061 -8.913621 16.266249 4.907416 0.665002 -9.848421 -6.931245 28.136892 -0.343000 -0.359222 3.083219 -0.422200 4.170598 -11.557194 0.976503 0.032824 0.403330 -2.010699 2.886799 -5.365697 19.535634 48.836697 100.321017 10.122454 -24.991058 -5.194591 0.813032 2.008794 -10.596581 -15.975886 -44.440259 107.949686 -11.294556 22.101928 -6.050408 -1.854871 -3.145055 -2.989722 
0.000946 0.414559 0.426970 -176.340473 4.021021 -179.919990 4.768594 -4.888821 -4.020557 -5.528853 0.903327 -8.132053 8.936341 8.260502 37.595767 4.432664 -11.202851 12.194731 0.583800 -4.892198 -13.601393 -1.462185 4.827851 -9.019489 16.330426 4.876951 0.885271 -9.768780 -6.911397 27.814616 -0.265159 -0.623499 2.964614 -0.410300 4.111898 -11.391594 0.793008 0.131340 0.399062 -1.939299 2.799999 -5.319697 19.721088 49.250180 100.614714 10.442242 -25.196834 -5.345951 0.800228 2.015619 -10.598689 -15.939309 -44.286493 107.668866 -11.609883 22.411845 -6.173671 -1.817448 -3.211217 -3.376992 
